<mxfile host="Electron" modified="2024-02-24T15:47:54.083Z" agent="Mozilla/5.0 (Macintosh; Intel Mac OS X 10_15_7) AppleWebKit/537.36 (KHTML, like Gecko) draw.io/22.1.16 Chrome/120.0.6099.109 Electron/28.1.0 Safari/537.36" etag="wUqbqAknEcqMkhzs_Kcq" version="22.1.16" type="device">
  <diagram name="Seite-1" id="3REqujptWhHt5KIE4cCY">
    <mxGraphModel dx="1266" dy="683" grid="1" gridSize="10" guides="1" tooltips="1" connect="1" arrows="1" fold="1" page="1" pageScale="1" pageWidth="827" pageHeight="1169" math="0" shadow="0">
      <root>
        <mxCell id="0" />
        <mxCell id="1" parent="0" />
        <mxCell id="Xx-h7hxk2euqiMCwku_e-3" value="ODEProblem" style="swimlane;fontStyle=1;align=center;verticalAlign=middle;childLayout=stackLayout;horizontal=1;startSize=29;horizontalStack=0;resizeParent=1;resizeParentMax=0;resizeLast=0;collapsible=0;marginBottom=0;html=1;whiteSpace=wrap;" vertex="1" parent="1">
          <mxGeometry x="300" y="250" width="250" height="150" as="geometry" />
        </mxCell>
        <mxCell id="Xx-h7hxk2euqiMCwku_e-5" value="&lt;code&gt;&lt;br&gt;- f ::&amp;nbsp;&lt;code style=&quot;border-color: var(--border-color);&quot;&gt;ODEFunction&lt;/code&gt;&lt;br&gt;- initial_condition&lt;br&gt;- tspan = (t_begin,t_end)&lt;br&gt;- p: constant parameters for f&lt;br&gt;- ...&lt;br style=&quot;border-color: var(--border-color);&quot;&gt;&amp;nbsp;&lt;br&gt;&lt;br&gt;&lt;/code&gt;" style="text;html=1;strokeColor=none;fillColor=none;align=left;verticalAlign=middle;spacingLeft=4;spacingRight=4;overflow=hidden;rotatable=0;points=[[0,0.5],[1,0.5]];portConstraint=eastwest;whiteSpace=wrap;" vertex="1" parent="Xx-h7hxk2euqiMCwku_e-3">
          <mxGeometry y="29" width="250" height="121" as="geometry" />
        </mxCell>
        <mxCell id="Xx-h7hxk2euqiMCwku_e-27" style="edgeStyle=orthogonalEdgeStyle;rounded=0;orthogonalLoop=1;jettySize=auto;html=1;exitX=0.25;exitY=1;exitDx=0;exitDy=0;" edge="1" parent="1" source="Xx-h7hxk2euqiMCwku_e-10" target="Xx-h7hxk2euqiMCwku_e-25">
          <mxGeometry relative="1" as="geometry" />
        </mxCell>
        <mxCell id="Xx-h7hxk2euqiMCwku_e-33" style="edgeStyle=orthogonalEdgeStyle;rounded=0;orthogonalLoop=1;jettySize=auto;html=1;exitX=0.75;exitY=1;exitDx=0;exitDy=0;" edge="1" parent="1" source="Xx-h7hxk2euqiMCwku_e-10" target="Xx-h7hxk2euqiMCwku_e-32">
          <mxGeometry relative="1" as="geometry" />
        </mxCell>
        <mxCell id="Xx-h7hxk2euqiMCwku_e-10" value="lösung = &lt;b&gt;solve&lt;/b&gt;(ODEProblem, [Lösungsalgorithmus]" style="shape=process;whiteSpace=wrap;html=1;backgroundOutline=1;" vertex="1" parent="1">
          <mxGeometry x="290" y="460" width="270" height="100" as="geometry" />
        </mxCell>
        <mxCell id="Xx-h7hxk2euqiMCwku_e-11" value="" style="endArrow=classic;html=1;rounded=0;" edge="1" parent="1" source="Xx-h7hxk2euqiMCwku_e-5" target="Xx-h7hxk2euqiMCwku_e-10">
          <mxGeometry width="50" height="50" relative="1" as="geometry">
            <mxPoint x="390" y="400" as="sourcePoint" />
            <mxPoint x="440" y="350" as="targetPoint" />
          </mxGeometry>
        </mxCell>
        <mxCell id="Xx-h7hxk2euqiMCwku_e-13" style="edgeStyle=orthogonalEdgeStyle;rounded=0;orthogonalLoop=1;jettySize=auto;html=1;entryX=0.25;entryY=0;entryDx=0;entryDy=0;exitX=0.5;exitY=1;exitDx=0;exitDy=0;" edge="1" parent="1" source="Xx-h7hxk2euqiMCwku_e-12" target="Xx-h7hxk2euqiMCwku_e-3">
          <mxGeometry relative="1" as="geometry">
            <mxPoint x="270" y="120" as="sourcePoint" />
            <mxPoint x="362.5" y="230" as="targetPoint" />
            <Array as="points">
              <mxPoint x="210" y="210" />
              <mxPoint x="363" y="210" />
            </Array>
          </mxGeometry>
        </mxCell>
        <mxCell id="Xx-h7hxk2euqiMCwku_e-12" value="f::ODEFunction:&lt;br&gt;Funktion, die die DGL beschreibt" style="rounded=0;whiteSpace=wrap;html=1;" vertex="1" parent="1">
          <mxGeometry x="150" y="110" width="120" height="60" as="geometry" />
        </mxCell>
        <mxCell id="Xx-h7hxk2euqiMCwku_e-14" value="initial_condition:&lt;br&gt;Anfangsbedinungen für DGL" style="rounded=0;whiteSpace=wrap;html=1;" vertex="1" parent="1">
          <mxGeometry x="300" y="110" width="120" height="60" as="geometry" />
        </mxCell>
        <mxCell id="Xx-h7hxk2euqiMCwku_e-16" value="tspan: Tuple&amp;nbsp; mit Integrations-zeitspanne" style="rounded=0;whiteSpace=wrap;html=1;" vertex="1" parent="1">
          <mxGeometry x="470" y="110" width="120" height="60" as="geometry" />
        </mxCell>
        <mxCell id="Xx-h7hxk2euqiMCwku_e-17" style="edgeStyle=orthogonalEdgeStyle;rounded=0;orthogonalLoop=1;jettySize=auto;html=1;entryX=0.72;entryY=0;entryDx=0;entryDy=0;entryPerimeter=0;" edge="1" parent="1" source="Xx-h7hxk2euqiMCwku_e-16" target="Xx-h7hxk2euqiMCwku_e-3">
          <mxGeometry relative="1" as="geometry">
            <Array as="points">
              <mxPoint x="530" y="190" />
              <mxPoint x="480" y="190" />
            </Array>
          </mxGeometry>
        </mxCell>
        <mxCell id="Xx-h7hxk2euqiMCwku_e-20" value="p: weitere Parameter. die in DGL genutzt werden" style="rounded=0;whiteSpace=wrap;html=1;" vertex="1" parent="1">
          <mxGeometry x="630" y="110" width="120" height="60" as="geometry" />
        </mxCell>
        <mxCell id="Xx-h7hxk2euqiMCwku_e-23" style="edgeStyle=orthogonalEdgeStyle;rounded=0;orthogonalLoop=1;jettySize=auto;html=1;exitX=0.5;exitY=1;exitDx=0;exitDy=0;entryX=0.8;entryY=0.013;entryDx=0;entryDy=0;entryPerimeter=0;" edge="1" parent="1" source="Xx-h7hxk2euqiMCwku_e-20" target="Xx-h7hxk2euqiMCwku_e-3">
          <mxGeometry relative="1" as="geometry" />
        </mxCell>
        <mxCell id="Xx-h7hxk2euqiMCwku_e-24" style="edgeStyle=orthogonalEdgeStyle;rounded=0;orthogonalLoop=1;jettySize=auto;html=1;exitX=0.75;exitY=1;exitDx=0;exitDy=0;entryX=0.4;entryY=0;entryDx=0;entryDy=0;entryPerimeter=0;" edge="1" parent="1" source="Xx-h7hxk2euqiMCwku_e-14" target="Xx-h7hxk2euqiMCwku_e-3">
          <mxGeometry relative="1" as="geometry" />
        </mxCell>
        <mxCell id="Xx-h7hxk2euqiMCwku_e-25" value="graphische Auswertung" style="swimlane;whiteSpace=wrap;html=1;" vertex="1" parent="1">
          <mxGeometry x="100" y="680" width="150" height="150" as="geometry" />
        </mxCell>
        <mxCell id="Xx-h7hxk2euqiMCwku_e-26" value="" style="sketch=0;aspect=fixed;pointerEvents=1;shadow=0;dashed=0;html=1;strokeColor=none;labelPosition=center;verticalLabelPosition=bottom;verticalAlign=top;align=center;fillColor=#00188D;shape=mxgraph.mscae.general.graph" vertex="1" parent="Xx-h7hxk2euqiMCwku_e-25">
          <mxGeometry x="25" y="40" width="100" height="100" as="geometry" />
        </mxCell>
        <mxCell id="Xx-h7hxk2euqiMCwku_e-28" value="numersiche Auswertung" style="swimlane;whiteSpace=wrap;html=1;startSize=40;" vertex="1" parent="1">
          <mxGeometry x="360" y="680" width="130" height="150" as="geometry" />
        </mxCell>
        <mxCell id="Xx-h7hxk2euqiMCwku_e-30" value="" style="html=1;verticalLabelPosition=bottom;labelBackgroundColor=#ffffff;verticalAlign=top;shadow=0;dashed=0;strokeWidth=2;shape=mxgraph.ios7.misc.number_pad;strokeWidth=1;" vertex="1" parent="Xx-h7hxk2euqiMCwku_e-28">
          <mxGeometry x="20" y="50" width="90" height="90" as="geometry" />
        </mxCell>
        <mxCell id="Xx-h7hxk2euqiMCwku_e-31" style="edgeStyle=orthogonalEdgeStyle;rounded=0;orthogonalLoop=1;jettySize=auto;html=1;exitX=0.5;exitY=1;exitDx=0;exitDy=0;entryX=0.5;entryY=0;entryDx=0;entryDy=0;" edge="1" parent="1" source="Xx-h7hxk2euqiMCwku_e-10" target="Xx-h7hxk2euqiMCwku_e-28">
          <mxGeometry relative="1" as="geometry">
            <mxPoint x="430" y="670" as="targetPoint" />
          </mxGeometry>
        </mxCell>
        <mxCell id="Xx-h7hxk2euqiMCwku_e-32" value="Eingangsdaten für weiteren Prozess" style="shape=process;whiteSpace=wrap;html=1;backgroundOutline=1;" vertex="1" parent="1">
          <mxGeometry x="560" y="680" width="190" height="150" as="geometry" />
        </mxCell>
      </root>
    </mxGraphModel>
  </diagram>
</mxfile>
